# xmcd
#
# Track frame offsets:
#	150
#	14157
#	25210
#	39139
#	51525
#	64337
#	75563
#	86855
#	99482
#	115575
#	130723
#	142896
#	154862
#	166625
#	179161
#	188347
#	199401
#	212183
#	225987
#	233028
#	245146
#	256891
#	267911
#	280460
#	292214
#	304671
#	318320
#	329892
#
# Disc length: 4564 seconds
#
# Revision: 1
# Processed by: cddbd v1.5.2PL0 Copyright (c) Steve Scherf et al.
# Submitted via: EZCDAudioConverter 7.0.6.1
#
DISCID=9d11d21c
DTITLE=Various Artist - Down Home Blues: Chicago 5/5
DYEAR=1900
DGENRE=Blues
TTITLE0=Elmore James - The Twelve Year Old Boy
TTITLE1=Elmore James - Coming Home
TTITLE2=Elmore James - It Hurts Me Too
TTITLE3=John Brim - Go Away
TTITLE4=John Brim - That Ain't Right
TTITLE5=Birmingham Junior - Birmingham Late Hours
TTITLE6=Birmingham Junior - You're Too Bad
TTITLE7=Howlin' Wolf - Break Of Day
TTITLE8=Howlin' Wolf - Bluebird
TTITLE9=Howlin' Wolf - You Ought To Know
TTITLE10=Otis Spann - I'm Leaving You
TTITLE11=Otis Spann - I'm In Love With You Baby
TTITLE12=Snooky Pryor - Someone To Love Me [Alternate Take]
TTITLE13=Snooky Pryor - Judgement Day [Alternate Take]
TTITLE14=Snooky Pryor - You Tried To Ruin Me Baby
TTITLE15=Po' Joe Williams - Kings Highway
TTITLE16=Po' Joe Williams - Eula Mae
TTITLE17=Sonny Boy Williamson - Don't Lose Your Eye
TTITLE18=Sonny Boy Williamson - I Wonder Why
TTITLE19=Sonny Boy Williamson - I Know What Love Is All About
TTITLE20=Jimmy Reed - When You Left Me
TTITLE21=Jimmy Reed - It's You Baby
TTITLE22=Jimmy Reed - Do The Thing
TTITLE23=Sonny Boy Williamson - The Key To Your Door [Alternate Take]
TTITLE24=John Brim - I Would Hate To See You Go
TTITLE25=John Brim - You Got Me Where You Want Me
TTITLE26=Eddie Boyd - 24 Hours Of Fear
TTITLE27=Eddie Boyd - Five Long Years
EXTD=
EXTT0=
EXTT1=
EXTT2=
EXTT3=
EXTT4=
EXTT5=
EXTT6=
EXTT7=
EXTT8=
EXTT9=
EXTT10=
EXTT11=
EXTT12=
EXTT13=
EXTT14=
EXTT15=
EXTT16=
EXTT17=
EXTT18=
EXTT19=
EXTT20=
EXTT21=
EXTT22=
EXTT23=
EXTT24=
EXTT25=
EXTT26=
EXTT27=
PLAYORDER=
